<svg width="523" height="492" viewBox="0 0 523 492" fill="none" xmlns="http://www.w3.org/2000/svg">
<g clip-path="url(#clip0)">
<g opacity="0.8">
<path opacity="0.8" d="M131.629 105.475C151.04 96.3286 160.997 76.6491 153.868 61.5194C146.738 46.3897 125.224 41.5392 105.813 50.6855C86.402 59.8318 76.4456 79.5113 83.5746 94.641C90.7036 109.771 112.218 114.621 131.629 105.475Z" fill="url(#paint0_linear)"/>
</g>
<path d="M131.343 104.867C150.323 95.9232 160.058 76.6805 153.088 61.8869C146.117 47.0932 125.08 42.3506 106.1 51.2939C87.1195 60.2372 77.3839 79.4798 84.3546 94.2735C91.3253 109.067 112.363 113.81 131.343 104.867Z" fill="#6C63FF"/>
<path opacity="0.1" d="M91.3127 94.633C84.3421 79.8394 94.0759 60.5975 113.055 51.6545C118.933 48.8453 125.337 47.308 131.856 47.142C123.881 45.8835 114.804 47.1128 106.155 51.188C87.1758 60.1311 77.4396 79.3741 84.4103 94.1677C89.0907 104.101 100.114 109.502 112.6 109.272C103.07 107.761 95.1081 102.688 91.3127 94.633Z" fill="white"/>
<path opacity="0.2" d="M123.794 88.8464L193.176 137.288L262.558 185.728L186.361 221.631L110.165 257.534L116.98 173.192L123.794 88.8464Z" fill="#6C63FF"/>
<g opacity="0.3">
<path opacity="0.3" d="M177.127 178.588L175.923 168.359C175.49 164.803 173.932 161.475 171.478 158.865C169.023 156.256 165.803 154.503 162.29 153.866L162.307 153.84C160.755 153.564 159.172 153.515 157.608 153.694L157.56 153.699L157.508 153.706C155.989 153.877 154.502 154.262 153.091 154.849C152.59 155.054 152.101 155.284 151.624 155.54C150.798 155.984 150.011 156.498 149.272 157.076C149.057 157.242 148.846 157.416 148.658 157.584C148.47 157.752 148.258 157.937 148.066 158.119C147.682 158.486 147.314 158.869 146.967 159.272C146.791 159.472 146.621 159.677 146.458 159.886C145.964 160.511 145.515 161.172 145.117 161.863C144.983 162.095 144.856 162.329 144.732 162.564C143.215 165.497 142.613 168.823 143.003 172.113L144.911 188.224C145.207 190.751 146.082 193.179 147.467 195.316C147.68 195.644 147.904 195.963 148.136 196.275C148.368 196.588 148.615 196.888 148.858 197.186C149.029 197.38 149.202 197.573 149.381 197.76C149.647 198.039 149.932 198.309 150.207 198.574C150.397 198.748 150.592 198.918 150.791 199.084C151.184 199.415 151.595 199.727 152.017 200.02C152.44 200.314 152.873 200.591 153.331 200.841C153.667 201.031 154.012 201.21 154.361 201.377C154.829 201.599 155.311 201.814 155.794 201.979C157.912 202.758 160.166 203.091 162.414 202.958L162.511 202.954C162.527 202.724 162.557 202.497 162.6 202.271C162.852 200.94 163.776 199.652 165.092 199.35C165.187 199.329 165.286 199.315 165.385 199.301C166.091 199.231 166.867 199.334 167.539 199.248C167.796 199.244 168.049 199.183 168.281 199.071C168.512 198.958 168.715 198.796 168.877 198.596C169.749 197.422 168.388 195.653 168.981 194.317C169.009 194.255 169.04 194.195 169.075 194.137C169.053 194.126 169.031 194.113 169.01 194.099C169.556 193.252 170.777 193.069 171.814 192.961C172.935 192.849 174.295 192.488 174.59 191.384C174.787 190.631 174.365 189.823 174.527 189.054C174.719 188.166 175.626 187.651 176.494 187.383L176.54 187.376C178.405 187.288 179.603 185.411 178.685 183.775C177.48 181.584 177.183 179.125 177.127 178.588Z" fill="url(#paint1_linear)"/>
</g>
<g opacity="0.5">
<g opacity="0.3">
<path opacity="0.3" d="M135.535 82.2284L134.331 71.9996C133.899 68.4436 132.341 65.1156 129.886 62.5062C127.432 59.8969 124.211 58.1442 120.698 57.5066L120.716 57.4809C119.163 57.2049 117.581 57.1556 116.016 57.3347L115.969 57.3394L115.916 57.3464C114.397 57.5178 112.91 57.9026 111.499 58.4896C110.999 58.6944 110.509 58.925 110.033 59.1805C109.206 59.6244 108.419 60.1383 107.68 60.7167C107.465 60.8829 107.254 61.0563 107.066 61.2244C106.879 61.3925 106.667 61.5779 106.474 61.7601C106.09 62.1271 105.722 62.51 105.375 62.9125C105.2 63.1131 105.029 63.3174 104.867 63.5267C104.372 64.1518 103.924 64.8127 103.526 65.504C103.391 65.7355 103.264 65.9695 103.14 66.2048C101.623 69.1375 101.021 72.464 101.411 75.7534L103.319 91.8643C103.616 94.3921 104.49 96.8196 105.875 98.9568C106.088 99.2843 106.312 99.6038 106.544 99.9162C106.776 100.229 107.023 100.528 107.266 100.827C107.437 101.021 107.61 101.214 107.789 101.401C108.055 101.68 108.341 101.949 108.616 102.215C108.806 102.388 109.001 102.559 109.199 102.725C109.593 103.056 110.003 103.367 110.426 103.661C110.849 103.954 111.281 104.231 111.739 104.482C112.075 104.672 112.421 104.851 112.769 105.018C113.237 105.239 113.714 105.443 114.202 105.62C116.321 106.398 118.574 106.732 120.822 106.599L120.919 106.594C120.936 106.365 120.965 106.137 121.008 105.912C121.261 104.58 122.185 103.292 123.5 102.991C123.596 102.97 123.695 102.956 123.794 102.942C124.499 102.871 125.276 102.975 125.947 102.889C126.205 102.884 126.458 102.824 126.689 102.712C126.92 102.599 127.124 102.437 127.286 102.237C128.157 101.062 126.796 99.2933 127.389 97.9574C127.417 97.8955 127.448 97.8354 127.483 97.7773C127.461 97.7665 127.439 97.7539 127.419 97.7399C127.964 96.8929 129.185 96.7097 130.223 96.6017C131.343 96.4898 132.704 96.1289 132.999 95.0251C133.195 94.2716 132.773 93.4641 132.936 92.6943C133.128 91.8072 134.034 91.2915 134.902 91.0241L134.943 91.0049C136.808 90.917 138.005 89.0397 137.088 87.4037C135.888 85.2249 135.591 82.7654 135.535 82.2284Z" fill="url(#paint2_linear)"/>
</g>
<path opacity="0.5" d="M120.929 105.041C121.175 103.745 122.059 102.502 123.334 102.222C124.61 101.943 126.222 102.532 126.986 101.496C128.033 100.082 125.734 97.7811 127.913 96.504C128.372 96.249 128.886 96.1081 129.411 96.093C130.556 96.0342 132.268 95.7707 132.59 94.5363C132.778 93.8101 132.373 93.0304 132.533 92.2939C132.717 91.44 133.594 90.9295 134.431 90.6828L134.475 90.6768C136.274 90.5931 137.431 88.7792 136.544 87.2024C135.369 85.1006 135.091 82.7298 135.03 82.2154L133.864 72.3465C133.354 68.1203 131.2 64.2606 127.872 61.6109C124.543 58.9612 120.312 57.7372 116.102 58.2063C111.895 58.6993 108.062 60.8445 105.44 64.1733C102.817 67.5021 101.619 71.7438 102.106 75.9717L103.929 91.4972C104.422 95.5738 106.447 99.3148 109.589 101.956C112.731 104.596 116.754 105.937 120.835 105.705C120.853 105.482 120.885 105.26 120.929 105.041Z" fill="white"/>
<path opacity="0.2" d="M111.723 71.7235C112.586 71.3169 112.954 70.2836 112.545 69.4155C112.136 68.5474 111.105 68.1733 110.242 68.5798C109.379 68.9863 109.011 70.0196 109.42 70.8877C109.829 71.7558 110.86 72.13 111.723 71.7235Z" fill="black"/>
<path opacity="0.2" d="M122.023 70.5435C122.886 70.137 123.254 69.1037 122.845 68.2356C122.436 67.3675 121.405 66.9933 120.542 67.3999C119.679 67.8064 119.311 68.8397 119.72 69.7078C120.129 70.5759 121.16 70.9501 122.023 70.5435Z" fill="black"/>
</g>
<path opacity="0.1" d="M147.981 54.5915C149.245 56.1162 150.311 57.7951 151.154 59.5879C158.125 74.3815 148.391 93.6234 129.411 102.566C113.873 109.876 96.9652 108.029 87.5277 99.01C96.457 109.783 114.691 112.471 131.348 104.622C150.327 95.6792 160.063 76.4361 153.093 61.6426C151.839 58.9954 150.106 56.6041 147.981 54.5915Z" fill="black"/>
<g opacity="0.8">
<path opacity="0.8" d="M133.031 108.45C172.285 89.9535 200.163 66.5914 195.299 56.2689C190.435 45.9464 154.671 52.5724 115.417 71.0686C76.1635 89.5647 48.285 112.927 53.1489 123.249C58.0128 133.572 93.7772 126.946 133.031 108.45Z" fill="url(#paint3_linear)"/>
</g>
<path d="M115.709 71.6867C77.7496 89.5727 50.7879 112.164 55.4922 122.148L192.958 57.3749C188.254 47.391 153.667 53.8006 115.709 71.6867Z" fill="white"/>
<path d="M132.741 107.834C170.7 89.9479 197.661 67.3564 192.958 57.3749L55.4922 122.148C60.1954 132.13 94.7819 125.72 132.741 107.834Z" fill="white"/>
<path opacity="0.05" d="M132.741 107.834C170.7 89.9479 197.661 67.3564 192.958 57.3749L55.4922 122.148C60.1954 132.13 94.7819 125.72 132.741 107.834Z" fill="black"/>
<path opacity="0.05" d="M150.674 71.5335L93.3303 98.5537C91.0481 99.629 90.0751 102.362 91.1571 104.659L91.6827 105.774C92.7647 108.07 95.4919 109.06 97.7742 107.985L155.118 80.9645C157.4 79.8891 158.373 77.1558 157.291 74.8596L156.766 73.7441C155.684 71.4478 152.957 70.4581 150.674 71.5335Z" fill="black"/>
<path opacity="0.5" d="M38.707 93.8008C38.4677 93.8071 38.234 93.7251 38.0502 93.5702C37.8664 93.4153 37.7453 93.1984 37.7099 92.9605C37.7048 92.9236 37.6956 92.8874 37.6825 92.8525C37.6436 92.7541 37.5741 92.6707 37.4844 92.6149C37.3947 92.5591 37.2895 92.5338 37.1847 92.5427C37.0798 92.5517 36.9807 92.5944 36.9023 92.6646C36.8238 92.7348 36.7702 92.8287 36.7494 92.9322C36.7429 92.9683 36.7405 93.0051 36.7423 93.0417C36.7504 93.2821 36.67 93.5167 36.5165 93.7006C36.363 93.8845 36.1471 94.0049 35.9101 94.0388C35.8734 94.044 35.8374 94.053 35.8026 94.0658C35.7047 94.1044 35.622 94.1737 35.5668 94.2635C35.5117 94.3533 35.4869 94.4588 35.4964 94.5641C35.5058 94.6695 35.5488 94.7691 35.6191 94.8482C35.6894 94.9273 35.7832 94.9815 35.8864 95.003C35.9226 95.011 35.9597 95.0144 35.9967 95.0129C36.236 95.0066 36.4697 95.0886 36.6535 95.2435C36.8372 95.3984 36.9583 95.6153 36.9938 95.8532C36.9987 95.8892 37.0075 95.9246 37.0201 95.9588C37.0585 96.0577 37.1277 96.1417 37.2174 96.198C37.3071 96.2544 37.4125 96.2801 37.5177 96.2714C37.6229 96.2627 37.7223 96.22 37.801 96.1497C37.8797 96.0794 37.9335 95.9853 37.9543 95.8815C37.961 95.8446 37.963 95.807 37.9602 95.7696C37.9553 95.5304 38.0379 95.2981 38.1923 95.1166C38.3467 94.9351 38.5622 94.817 38.7982 94.7846C38.8348 94.7794 38.8709 94.7703 38.9056 94.7576C39.0035 94.719 39.0862 94.6496 39.1414 94.5598C39.1966 94.47 39.2213 94.3646 39.2119 94.2593C39.2024 94.1539 39.1594 94.0543 39.0891 93.9752C39.0188 93.8961 38.9251 93.8418 38.8218 93.8204C38.7846 93.8087 38.746 93.8021 38.707 93.8008Z" fill="#4D8AF0"/>
<path opacity="0.5" d="M195.667 110.129C195.428 110.133 195.197 110.048 195.016 109.893C194.834 109.737 194.715 109.52 194.681 109.283C194.676 109.247 194.667 109.21 194.654 109.175C194.615 109.077 194.546 108.994 194.456 108.938C194.366 108.882 194.261 108.857 194.156 108.866C194.051 108.875 193.952 108.917 193.874 108.988C193.795 109.058 193.742 109.152 193.721 109.255C193.714 109.291 193.712 109.328 193.714 109.365C193.722 109.605 193.642 109.84 193.488 110.024C193.335 110.207 193.119 110.328 192.882 110.362C192.845 110.367 192.809 110.376 192.774 110.389C192.676 110.427 192.594 110.497 192.538 110.587C192.483 110.676 192.459 110.782 192.468 110.887C192.477 110.992 192.52 111.092 192.591 111.171C192.661 111.25 192.755 111.305 192.858 111.326C192.894 111.334 192.931 111.337 192.968 111.336C193.206 111.333 193.438 111.417 193.619 111.573C193.801 111.728 193.919 111.945 193.953 112.182C193.958 112.218 193.967 112.253 193.98 112.287C194.018 112.386 194.087 112.47 194.177 112.527C194.267 112.583 194.372 112.609 194.477 112.6C194.582 112.591 194.682 112.549 194.761 112.478C194.839 112.408 194.893 112.314 194.914 112.21C194.921 112.173 194.923 112.136 194.92 112.098C194.915 111.859 194.997 111.627 195.152 111.445C195.306 111.264 195.522 111.146 195.758 111.113C195.794 111.108 195.83 111.099 195.865 111.086C195.963 111.048 196.046 110.978 196.101 110.888C196.156 110.799 196.181 110.693 196.171 110.588C196.162 110.483 196.119 110.383 196.049 110.304C195.978 110.225 195.885 110.17 195.781 110.149C195.744 110.137 195.706 110.131 195.667 110.129Z" fill="#4D8AF0"/>
<path opacity="0.5" d="M76.957 207.963C76.7177 207.969 76.484 207.887 76.3002 207.732C76.1164 207.577 75.9953 207.36 75.9599 207.122C75.9548 207.085 75.9456 207.049 75.9325 207.014C75.8936 206.916 75.8241 206.833 75.7344 206.777C75.6447 206.721 75.5396 206.696 75.4347 206.705C75.3298 206.714 75.2307 206.756 75.1523 206.826C75.0738 206.897 75.0202 206.991 74.9994 207.094C74.9929 207.13 74.9905 207.167 74.9923 207.204C75.0004 207.444 74.92 207.679 74.7665 207.862C74.613 208.046 74.3971 208.167 74.1601 208.201C74.1234 208.206 74.0874 208.215 74.0526 208.228C73.9547 208.266 73.872 208.336 73.8168 208.425C73.7617 208.515 73.7369 208.621 73.7464 208.726C73.7558 208.831 73.7988 208.931 73.8691 209.01C73.9394 209.089 74.0332 209.143 74.1364 209.165C74.1726 209.173 74.2097 209.176 74.2467 209.175C74.486 209.168 74.7197 209.25 74.9035 209.405C75.0873 209.56 75.2083 209.777 75.2438 210.015C75.2487 210.051 75.2575 210.086 75.2701 210.121C75.3085 210.22 75.3777 210.304 75.4674 210.36C75.5571 210.416 75.6625 210.442 75.7677 210.433C75.8729 210.425 75.9723 210.382 76.051 210.312C76.1297 210.241 76.1835 210.147 76.2043 210.043C76.211 210.006 76.213 209.969 76.2102 209.931C76.2053 209.692 76.2879 209.46 76.4423 209.278C76.5967 209.097 76.8122 208.979 77.0482 208.946C77.0849 208.941 77.1209 208.932 77.1557 208.919C77.2535 208.881 77.3362 208.811 77.3914 208.722C77.4466 208.632 77.4713 208.526 77.4619 208.421C77.4525 208.316 77.4094 208.216 77.3391 208.137C77.2688 208.058 77.1751 208.004 77.0718 207.982C77.0346 207.971 76.996 207.964 76.957 207.963Z" fill="#4D8AF0"/>
<path opacity="0.5" d="M26.1009 134.262C25.8628 134.265 25.6313 134.181 25.4499 134.025C25.2685 133.87 25.1497 133.653 25.1158 133.416C25.1107 133.379 25.1015 133.343 25.0884 133.308C25.0495 133.21 24.98 133.126 24.8903 133.071C24.8006 133.015 24.6954 132.99 24.5905 132.998C24.4856 133.007 24.3866 133.05 24.3082 133.12C24.2297 133.191 24.1761 133.284 24.1553 133.388C24.1488 133.424 24.1464 133.461 24.1482 133.498C24.1563 133.738 24.0759 133.972 23.9224 134.156C23.7689 134.34 23.553 134.461 23.316 134.495C23.2793 134.5 23.2432 134.509 23.2085 134.522C23.1106 134.56 23.0279 134.63 22.9727 134.719C22.9176 134.809 22.8928 134.915 22.9023 135.02C22.9117 135.125 22.9547 135.225 23.025 135.304C23.0953 135.383 23.1891 135.437 23.2923 135.459C23.3285 135.467 23.3656 135.47 23.4026 135.469C23.6419 135.462 23.8756 135.544 24.0594 135.699C24.2432 135.854 24.3642 136.071 24.3997 136.309C24.4046 136.345 24.4134 136.38 24.426 136.415C24.4644 136.514 24.5336 136.597 24.6233 136.654C24.713 136.71 24.8184 136.736 24.9236 136.727C25.0288 136.719 25.1282 136.676 25.2069 136.606C25.2856 136.535 25.3394 136.441 25.3602 136.337C25.3669 136.3 25.3689 136.263 25.3661 136.225C25.3612 135.986 25.4438 135.754 25.5982 135.572C25.7526 135.391 25.9681 135.273 26.2041 135.24C26.2407 135.235 26.2768 135.226 26.3116 135.213C26.4094 135.175 26.4921 135.105 26.5473 135.016C26.6025 134.926 26.6272 134.82 26.6178 134.715C26.6083 134.61 26.5653 134.51 26.495 134.431C26.4247 134.352 26.331 134.298 26.2277 134.276C26.1864 134.265 26.1436 134.261 26.1009 134.262Z" fill="#4D8AF0"/>
<path opacity="0.5" d="M152.651 25.063C152.413 25.0662 152.182 24.982 152 24.8263C151.819 24.6705 151.7 24.4539 151.666 24.2171C151.661 24.1802 151.652 24.144 151.639 24.1091C151.6 24.0107 151.53 23.9273 151.441 23.8715C151.351 23.8157 151.246 23.7904 151.141 23.7993C151.036 23.8083 150.937 23.851 150.859 23.9212C150.78 23.9914 150.726 24.0853 150.706 24.1888C150.699 24.2249 150.697 24.2617 150.699 24.2983C150.704 24.5375 150.621 24.7698 150.467 24.9513C150.312 25.1328 150.097 25.2509 149.861 25.2833C149.824 25.2885 149.788 25.2976 149.753 25.3103C149.639 25.3372 149.539 25.4043 149.471 25.4992C149.403 25.5941 149.37 25.7107 149.381 25.8278C149.391 25.9448 149.442 26.0545 149.526 26.137C149.609 26.2195 149.72 26.2693 149.836 26.2773C149.873 26.2854 149.91 26.2887 149.947 26.2873C150.185 26.2841 150.416 26.3682 150.598 26.524C150.779 26.6798 150.898 26.8964 150.932 27.1332C150.937 27.1692 150.945 27.2046 150.958 27.2388C150.995 27.343 151.065 27.4319 151.158 27.4911C151.251 27.5503 151.361 27.5764 151.471 27.5652C151.58 27.5539 151.682 27.506 151.761 27.4291C151.839 27.3522 151.889 27.2509 151.903 27.1415C151.91 27.1046 151.912 27.067 151.909 27.0295C151.904 26.7903 151.987 26.558 152.141 26.3766C152.296 26.1951 152.511 26.077 152.747 26.0446C152.784 26.0394 152.82 26.0303 152.855 26.0176C152.953 25.979 153.035 25.9096 153.09 25.8198C153.146 25.73 153.17 25.6246 153.161 25.5192C153.152 25.4139 153.108 25.3143 153.038 25.2352C152.968 25.1561 152.874 25.1018 152.771 25.0804C152.732 25.069 152.692 25.0631 152.651 25.063Z" fill="#4D8AF0"/>
<g opacity="0.5">
<path opacity="0.5" d="M56.4523 144.462L55.7324 144.801L57.6665 148.906L58.3864 148.567L56.4523 144.462Z" fill="#47E6B1"/>
<path opacity="0.5" d="M59.2699 146.085L58.9286 145.361L54.849 147.283L55.1904 148.007L59.2699 146.085Z" fill="#47E6B1"/>
</g>
<g opacity="0.5">
<path opacity="0.5" d="M220.131 43.7332L219.411 44.0724L221.345 48.177L222.065 47.8378L220.131 43.7332Z" fill="#47E6B1"/>
<path opacity="0.5" d="M222.949 45.3561L222.608 44.6318L218.528 46.554L218.869 47.2784L222.949 45.3561Z" fill="#47E6B1"/>
</g>
<g opacity="0.5">
<path opacity="0.5" d="M227.876 122.405L227.156 122.744L229.09 126.849L229.81 126.509L227.876 122.405Z" fill="#47E6B1"/>
<path opacity="0.5" d="M230.693 124.028L230.352 123.303L226.272 125.226L226.614 125.95L230.693 124.028Z" fill="#47E6B1"/>
</g>
<path opacity="0.5" d="M183.495 34.4409C184.29 34.0662 184.629 33.1139 184.252 32.3138C183.875 31.5137 182.925 31.1688 182.13 31.5435C181.335 31.9183 180.996 32.8706 181.373 33.6707C181.75 34.4708 182.7 34.8156 183.495 34.4409Z" fill="#F55F44"/>
<path opacity="0.5" d="M3.58436 98.8549C4.37956 98.4802 4.71858 97.5279 4.34159 96.7278C3.96459 95.9277 3.01433 95.5829 2.21913 95.9576C1.42393 96.3323 1.08491 97.2846 1.46191 98.0847C1.83891 98.8848 2.78916 99.2296 3.58436 98.8549Z" fill="#F55F44"/>
<path opacity="0.5" d="M86.0299 161.801C86.8251 161.427 87.1641 160.474 86.7871 159.674C86.4101 158.874 85.4599 158.529 84.6647 158.904C83.8695 159.279 83.5305 160.231 83.9075 161.031C84.2845 161.831 85.2347 162.176 86.0299 161.801Z" fill="#F55F44"/>
<path opacity="0.05" d="M74.5194 107.5C79.0255 105.377 82.3219 102.899 81.8821 101.965C81.4423 101.032 77.4328 101.996 72.9266 104.12C68.4205 106.243 65.1241 108.721 65.564 109.654C66.0038 110.588 70.0133 109.623 74.5194 107.5Z" fill="black"/>
<path opacity="0.05" d="M80.5492 120.297C85.0553 118.173 88.3517 115.695 87.9119 114.762C87.4721 113.829 83.4626 114.793 78.9564 116.916C74.4503 119.04 71.1539 121.518 71.5937 122.451C72.0336 123.384 76.0431 122.42 80.5492 120.297Z" fill="black"/>
<path opacity="0.05" d="M167.389 63.7403C171.895 61.617 175.192 59.1391 174.752 58.2056C174.312 57.2722 170.302 58.2367 165.796 60.36C161.29 62.4832 157.994 64.9612 158.434 65.8946C158.873 66.8281 162.883 65.8635 167.389 63.7403Z" fill="black"/>
<path opacity="0.05" d="M173.419 76.537C177.925 74.4138 181.221 71.9358 180.781 71.0024C180.342 70.0689 176.332 71.0335 171.826 73.1567C167.32 75.28 164.023 77.7579 164.463 78.6914C164.903 79.6248 168.913 78.6603 173.419 76.537Z" fill="black"/>
<path opacity="0.05" d="M118.621 77.8678C123.127 75.7445 126.424 73.2665 125.984 72.3331C125.544 71.3997 121.534 72.3642 117.028 74.4875C112.522 76.6107 109.226 79.0887 109.666 80.0221C110.105 80.9556 114.115 79.991 118.621 77.8678Z" fill="black"/>
<path opacity="0.05" d="M116.315 57.4151C120.821 55.2919 124.118 52.8139 123.678 51.8805C123.238 50.9471 119.229 51.9116 114.722 54.0349C110.216 56.1581 106.92 58.6361 107.36 59.5695C107.8 60.503 111.809 59.5384 116.315 57.4151Z" fill="black"/>
<path opacity="0.05" d="M104.13 72.0084C108.636 69.8851 111.933 67.4072 111.493 66.4738C111.053 65.5403 107.043 66.5049 102.537 68.6281C98.0311 70.7514 94.7347 73.2293 95.1746 74.1628C95.6144 75.0962 99.6239 74.1317 104.13 72.0084Z" fill="black"/>
<path opacity="0.05" d="M135.606 61.013C140.112 58.8897 143.408 56.4118 142.968 55.4783C142.529 54.5449 138.519 55.5094 134.013 57.6327C129.507 59.756 126.21 62.2339 126.65 63.1674C127.09 64.1008 131.1 63.1363 135.606 61.013Z" fill="black"/>
<path opacity="0.05" d="M130.453 102.978C134.959 100.855 138.256 98.3772 137.816 97.4437C137.376 96.5103 133.366 97.4748 128.86 99.5981C124.354 101.721 121.058 104.199 121.498 105.133C121.937 106.066 125.947 105.102 130.453 102.978Z" fill="black"/>
</g>
<path d="M413.981 239.348C432.447 239.348 447.416 224.365 447.416 205.882C447.416 187.4 432.447 172.417 413.981 172.417C395.515 172.417 380.546 187.4 380.546 205.882C380.546 224.365 395.515 239.348 413.981 239.348Z" fill="#F2F2F2"/>
<path d="M311.287 140.864C312.87 140.864 314.153 139.58 314.153 137.995C314.153 136.411 312.87 135.127 311.287 135.127C309.704 135.127 308.421 136.411 308.421 137.995C308.421 139.58 309.704 140.864 311.287 140.864Z" fill="#FF6584"/>
<path d="M404.428 333.051C406.011 333.051 407.294 331.767 407.294 330.183C407.294 328.598 406.011 327.314 404.428 327.314C402.845 327.314 401.562 328.598 401.562 330.183C401.562 331.767 402.845 333.051 404.428 333.051Z" fill="#FF6584"/>
<path d="M413.981 140.864C415.564 140.864 416.847 139.58 416.847 137.995C416.847 136.411 415.564 135.127 413.981 135.127C412.398 135.127 411.115 136.411 411.115 137.995C411.115 139.58 412.398 140.864 413.981 140.864Z" fill="#F2F2F2"/>
<path d="M454.103 279.028C455.686 279.028 456.969 277.744 456.969 276.16C456.969 274.576 455.686 273.291 454.103 273.291C452.521 273.291 451.238 274.576 451.238 276.16C451.238 277.744 452.521 279.028 454.103 279.028Z" fill="#F2F2F2"/>
<path d="M339.946 218.312C341.528 218.312 342.812 217.028 342.812 215.444C342.812 213.86 341.528 212.576 339.946 212.576C338.363 212.576 337.08 213.86 337.08 215.444C337.08 217.028 338.363 218.312 339.946 218.312Z" fill="#F2F2F2"/>
<path d="M242.506 412.89C296.32 412.89 339.946 369.225 339.946 315.362C339.946 261.499 296.32 217.834 242.506 217.834C188.691 217.834 145.066 261.499 145.066 315.362C145.066 369.225 188.691 412.89 242.506 412.89Z" fill="#6C63FF"/>
<path opacity="0.2" d="M238.207 290.024C246.121 290.024 252.536 283.603 252.536 275.682C252.536 267.761 246.121 261.339 238.207 261.339C230.293 261.339 223.877 267.761 223.877 275.682C223.877 283.603 230.293 290.024 238.207 290.024Z" fill="black"/>
<path opacity="0.2" d="M238.207 396.635C251.924 396.635 263.044 385.505 263.044 371.775C263.044 358.046 251.924 346.915 238.207 346.915C224.489 346.915 213.369 358.046 213.369 371.775C213.369 385.505 224.489 396.635 238.207 396.635Z" fill="black"/>
<path opacity="0.2" d="M166.082 340.222C169.511 340.222 172.292 337.44 172.292 334.007C172.292 330.575 169.511 327.792 166.082 327.792C162.653 327.792 159.873 330.575 159.873 334.007C159.873 337.44 162.653 340.222 166.082 340.222Z" fill="black"/>
<path opacity="0.2" d="M411.072 191.924C412.896 191.924 414.373 190.445 414.373 188.62C414.373 186.796 412.896 185.317 411.072 185.317C409.249 185.317 407.772 186.796 407.772 188.62C407.772 190.445 409.249 191.924 411.072 191.924Z" fill="black"/>
<path opacity="0.2" d="M271.122 257.421C272.945 257.421 274.423 255.942 274.423 254.117C274.423 252.292 272.945 250.813 271.122 250.813C269.299 250.813 267.821 252.292 267.821 254.117C267.821 255.942 269.299 257.421 271.122 257.421Z" fill="black"/>
<path opacity="0.2" d="M233.908 323.968C236.282 323.968 238.207 322.041 238.207 319.665C238.207 317.289 236.282 315.362 233.908 315.362C231.534 315.362 229.609 317.289 229.609 319.665C229.609 322.041 231.534 323.968 233.908 323.968Z" fill="black"/>
<path opacity="0.2" d="M403.038 218.321C404.861 218.321 406.339 216.842 406.339 215.017C406.339 213.193 404.861 211.713 403.038 211.713C401.215 211.713 399.737 213.193 399.737 215.017C399.737 216.842 401.215 218.321 403.038 218.321Z" fill="black"/>
<path opacity="0.2" d="M314.195 299.594C316.018 299.594 317.496 298.115 317.496 296.29C317.496 294.466 316.018 292.987 314.195 292.987C312.372 292.987 310.895 294.466 310.895 296.29C310.895 298.115 312.372 299.594 314.195 299.594Z" fill="black"/>
<path opacity="0.2" d="M432.618 216.673C435.251 216.673 437.386 214.537 437.386 211.901C437.386 209.265 435.251 207.129 432.618 207.129C429.985 207.129 427.85 209.265 427.85 211.901C427.85 214.537 429.985 216.673 432.618 216.673Z" fill="black"/>
<path opacity="0.2" d="M286.935 334.759C289.569 334.759 291.703 332.622 291.703 329.986C291.703 327.351 289.569 325.214 286.935 325.214C284.302 325.214 282.167 327.351 282.167 329.986C282.167 332.622 284.302 334.759 286.935 334.759Z" fill="black"/>
<path opacity="0.2" d="M182.322 281.897C185.751 281.897 188.532 279.114 188.532 275.682C188.532 272.249 185.751 269.467 182.322 269.467C178.893 269.467 176.113 272.249 176.113 275.682C176.113 279.114 178.893 281.897 182.322 281.897Z" fill="black"/>
<path d="M263.617 371.579C253.37 371.565 243.132 370.973 232.951 369.805C202.331 366.325 174.091 358.1 153.432 346.647C132.521 335.054 121.821 321.479 123.302 308.424C124.329 299.378 133.063 291.282 150.006 283.674C150.237 283.57 150.499 283.563 150.736 283.654C150.972 283.744 151.163 283.924 151.267 284.156C151.371 284.387 151.378 284.65 151.288 284.886C151.199 285.123 151.019 285.315 150.788 285.419C134.514 292.727 126.144 300.322 125.201 308.639C123.812 320.877 134.167 333.78 154.358 344.975C174.802 356.309 202.79 364.452 233.167 367.905C263.544 371.358 292.643 369.703 315.106 363.247C337.291 356.869 350.273 346.618 351.661 334.381C352.601 326.102 348.045 317.325 338.486 308.996C338.295 308.829 338.178 308.594 338.16 308.341C338.143 308.088 338.227 307.838 338.393 307.647C338.559 307.455 338.795 307.338 339.048 307.321C339.3 307.303 339.55 307.387 339.741 307.553C349.795 316.314 354.573 325.665 353.56 334.596C352.078 347.652 338.609 358.48 315.633 365.084C300.674 369.385 282.819 371.579 263.617 371.579Z" fill="white"/>
<path opacity="0.1" d="M476.107 273.872L478.815 275.905L480.169 266.418L476.107 273.872Z" fill="black"/>
<path d="M164.736 145.614C148.515 145.614 135.318 158.811 135.318 175.031C135.318 191.252 148.515 204.448 164.736 204.448C180.956 204.448 194.153 191.252 194.153 175.031C194.153 158.811 180.956 145.614 164.736 145.614ZM177.111 183.248L172.952 187.407L164.736 179.191L156.519 187.407L152.36 183.248L160.576 175.031L152.36 166.815L156.519 162.656L164.736 170.872L172.952 162.656L177.111 166.815L168.895 175.031L177.111 183.248Z" fill="#D70303"/>
<defs>
<linearGradient id="paint0_linear" x1="131.63" y1="105.477" x2="105.813" y2="50.6855" gradientUnits="userSpaceOnUse">
<stop stop-color="#808080" stop-opacity="0.25"/>
<stop offset="0.54" stop-color="#808080" stop-opacity="0.12"/>
<stop offset="1" stop-color="#808080" stop-opacity="0.1"/>
</linearGradient>
<linearGradient id="paint1_linear" x1="27863.4" y1="88540.8" x2="26862.3" y2="79764" gradientUnits="userSpaceOnUse">
<stop stop-color="#808080" stop-opacity="0.25"/>
<stop offset="0.54" stop-color="#808080" stop-opacity="0.12"/>
<stop offset="1" stop-color="#808080" stop-opacity="0.1"/>
</linearGradient>
<linearGradient id="paint2_linear" x1="21449.4" y1="71108" x2="20448.2" y2="62331.3" gradientUnits="userSpaceOnUse">
<stop stop-color="#808080" stop-opacity="0.25"/>
<stop offset="0.54" stop-color="#808080" stop-opacity="0.12"/>
<stop offset="1" stop-color="#808080" stop-opacity="0.1"/>
</linearGradient>
<linearGradient id="paint3_linear" x1="65999.2" y1="-19183.3" x2="63272.3" y2="-24970.6" gradientUnits="userSpaceOnUse">
<stop stop-color="#808080" stop-opacity="0.25"/>
<stop offset="0.54" stop-color="#808080" stop-opacity="0.12"/>
<stop offset="1" stop-color="#808080" stop-opacity="0.1"/>
</linearGradient>
<clipPath id="clip0">
<rect width="222.834" height="194.003" fill="white" transform="translate(0 94.9821) rotate(-25.2295)"/>
</clipPath>
</defs>
</svg>
