<svg width="570" height="537" viewBox="0 0 570 537" fill="none" xmlns="http://www.w3.org/2000/svg">
<g clip-path="url(#clip0)">
<g opacity="0.8">
<path opacity="0.8" d="M143.489 114.978C164.649 105.008 175.502 83.5552 167.731 67.0623C159.96 50.5694 136.506 45.2819 115.347 55.2522C94.1868 65.2226 83.3334 86.6753 91.1047 103.168C98.8761 119.661 122.329 124.949 143.489 114.978Z" fill="url(#paint0_linear)"/>
</g>
<path d="M143.177 114.315C163.867 104.566 174.48 83.5894 166.881 67.4629C159.282 51.3363 136.349 46.1663 115.659 55.9154C94.969 65.6646 84.3562 86.6409 91.955 102.768C99.5537 118.894 122.486 124.064 143.177 114.315Z" fill="#6C63FF"/>
<path opacity="0.1" d="M99.54 103.159C91.9413 87.0329 102.552 66.0573 123.242 56.3085C129.648 53.2462 136.63 51.5705 143.736 51.3895C135.043 50.0176 125.148 51.3577 115.72 55.8C95.0303 65.5488 84.4169 86.5257 92.0156 102.652C97.1177 113.48 109.134 119.368 122.746 119.117C112.357 117.47 103.677 111.94 99.54 103.159Z" fill="white"/>
<path opacity="0.2" d="M134.948 96.8515L210.582 149.658L286.214 202.462L203.153 241.6L120.091 280.738L127.52 188.796L134.948 96.8515Z" fill="#6C63FF"/>
<g opacity="0.3">
<path opacity="0.3" d="M193.086 194.678L191.773 183.528C191.302 179.651 189.603 176.024 186.928 173.179C184.252 170.335 180.741 168.424 176.912 167.729L176.931 167.701C175.239 167.4 173.514 167.347 171.808 167.542L171.756 167.547L171.699 167.554C170.043 167.741 168.422 168.161 166.884 168.801C166.339 169.024 165.805 169.275 165.286 169.554C164.385 170.038 163.527 170.598 162.721 171.228C162.487 171.41 162.256 171.599 162.052 171.782C161.847 171.965 161.616 172.167 161.406 172.366C160.988 172.766 160.586 173.183 160.208 173.622C160.017 173.841 159.831 174.063 159.654 174.292C159.115 174.973 158.626 175.693 158.192 176.447C158.046 176.699 157.907 176.955 157.772 177.211C156.119 180.408 155.462 184.034 155.887 187.62L157.967 205.182C158.29 207.938 159.244 210.584 160.753 212.914C160.986 213.271 161.23 213.619 161.483 213.96C161.736 214.3 162.005 214.627 162.27 214.953C162.456 215.164 162.645 215.374 162.84 215.578C163.13 215.882 163.441 216.176 163.741 216.466C163.948 216.655 164.16 216.841 164.377 217.022C164.806 217.383 165.253 217.722 165.714 218.042C166.175 218.362 166.647 218.664 167.146 218.937C167.512 219.144 167.889 219.339 168.268 219.521C168.779 219.763 169.305 219.997 169.831 220.177C172.14 221.026 174.596 221.389 177.047 221.245L177.153 221.24C177.171 220.99 177.203 220.742 177.25 220.496C177.525 219.044 178.533 217.64 179.967 217.312C180.071 217.289 180.178 217.273 180.286 217.258C181.056 217.181 181.902 217.294 182.634 217.2C182.915 217.196 183.191 217.13 183.443 217.007C183.695 216.884 183.917 216.708 184.093 216.49C185.043 215.209 183.559 213.281 184.206 211.825C184.236 211.757 184.271 211.692 184.309 211.628C184.284 211.616 184.261 211.603 184.238 211.587C184.832 210.664 186.164 210.464 187.295 210.347C188.516 210.225 189.999 209.831 190.321 208.628C190.535 207.807 190.075 206.926 190.252 206.087C190.461 205.12 191.45 204.558 192.396 204.267L192.447 204.259C194.479 204.163 195.785 202.117 194.785 200.333C193.471 197.945 193.147 195.264 193.086 194.678Z" fill="url(#paint1_linear)"/>
</g>
<g opacity="0.5">
<g opacity="0.3">
<path opacity="0.3" d="M147.747 89.6372L146.434 78.4868C145.963 74.6103 144.264 70.9825 141.589 68.138C138.913 65.2936 135.402 63.383 131.573 62.688L131.592 62.6599C129.9 62.359 128.174 62.3053 126.469 62.5006L126.417 62.5057L126.36 62.5133C124.704 62.7002 123.083 63.1197 121.545 63.7595C121 63.9827 120.466 64.2341 119.947 64.5126C119.046 64.9966 118.188 65.5568 117.382 66.1873C117.148 66.3684 116.917 66.5575 116.713 66.7407C116.508 66.924 116.277 67.126 116.067 67.3247C115.648 67.7247 115.247 68.1421 114.869 68.5809C114.678 68.7995 114.492 69.0223 114.315 69.2504C113.776 69.9319 113.287 70.6523 112.853 71.4059C112.707 71.6582 112.568 71.9134 112.433 72.1699C110.78 75.3667 110.123 78.993 110.548 82.5788L112.628 100.141C112.951 102.897 113.905 105.543 115.414 107.873C115.646 108.23 115.89 108.578 116.144 108.919C116.397 109.259 116.666 109.586 116.931 109.911C117.117 110.123 117.306 110.333 117.501 110.537C117.791 110.841 118.102 111.135 118.402 111.425C118.609 111.613 118.821 111.8 119.038 111.981C119.467 112.342 119.914 112.681 120.375 113.001C120.836 113.321 121.308 113.623 121.807 113.896C122.173 114.103 122.55 114.298 122.929 114.48C123.44 114.722 123.96 114.943 124.492 115.136C126.801 115.985 129.257 116.348 131.708 116.203L131.814 116.198C131.832 115.949 131.864 115.7 131.911 115.455C132.186 114.003 133.193 112.599 134.628 112.271C134.732 112.247 134.839 112.232 134.947 112.217C135.717 112.14 136.563 112.253 137.295 112.159C137.576 112.154 137.852 112.089 138.104 111.966C138.355 111.843 138.578 111.667 138.754 111.449C139.704 110.168 138.22 108.24 138.867 106.783C138.897 106.716 138.932 106.65 138.969 106.587C138.945 106.575 138.922 106.562 138.899 106.546C139.493 105.623 140.825 105.423 141.956 105.305C143.177 105.184 144.66 104.79 144.982 103.587C145.196 102.765 144.736 101.885 144.913 101.046C145.122 100.079 146.111 99.5169 147.057 99.2254L147.101 99.2044C149.134 99.1086 150.44 97.0622 149.439 95.2788C148.132 92.9037 147.808 90.2225 147.747 89.6372Z" fill="url(#paint2_linear)"/>
</g>
<path opacity="0.5" d="M131.825 114.505C132.093 113.092 133.056 111.737 134.447 111.433C135.838 111.128 137.595 111.77 138.428 110.641C139.569 109.1 137.063 106.591 139.437 105.199C139.938 104.921 140.498 104.767 141.071 104.751C142.319 104.687 144.185 104.4 144.536 103.054C144.741 102.262 144.299 101.412 144.474 100.61C144.675 99.6788 145.631 99.1223 146.543 98.8533L146.591 98.8467C148.552 98.7556 149.814 96.7782 148.847 95.0594C147.566 92.7682 147.262 90.1837 147.196 89.623L145.925 78.865C145.37 74.258 143.021 70.0504 139.393 67.162C135.765 64.2737 131.152 62.9393 126.562 63.4507C121.977 63.9881 117.798 66.3266 114.94 69.9553C112.081 73.584 110.775 78.2079 111.306 82.8167L113.293 99.741C113.831 104.185 116.038 108.263 119.463 111.142C122.888 114.02 127.273 115.482 131.722 115.229C131.742 114.986 131.776 114.744 131.825 114.505Z" fill="white"/>
<path opacity="0.2" d="M121.789 78.1857C122.73 77.7426 123.131 76.6162 122.685 75.6699C122.239 74.7235 121.115 74.3157 120.175 74.7588C119.234 75.202 118.833 76.3284 119.279 77.2747C119.725 78.221 120.849 78.6289 121.789 78.1857Z" fill="black"/>
<path opacity="0.2" d="M133.018 76.8995C133.958 76.4563 134.359 75.3299 133.913 74.3836C133.467 73.4373 132.343 73.0294 131.403 73.4726C130.462 73.9158 130.061 75.0422 130.507 75.9885C130.953 76.9348 132.077 77.3427 133.018 76.8995Z" fill="black"/>
</g>
<path opacity="0.1" d="M161.315 59.5102C162.692 61.1722 163.854 63.0024 164.773 64.9567C172.372 81.0832 161.761 102.059 141.071 111.808C124.133 119.776 105.702 117.763 95.4139 107.931C105.148 119.674 125.025 122.604 143.182 114.049C163.872 104.3 174.485 83.323 166.886 67.1966C165.52 64.3109 163.631 61.7041 161.315 59.5102Z" fill="black"/>
<g opacity="0.8">
<path opacity="0.8" d="M145.017 118.221C187.808 98.0583 218.198 72.5913 212.896 61.3387C207.594 50.0861 168.607 57.3092 125.816 77.4718C83.0259 97.6345 52.6355 123.101 57.9377 134.354C63.2398 145.607 102.227 138.384 145.017 118.221Z" fill="url(#paint3_linear)"/>
</g>
<path d="M126.134 78.1456C84.7548 97.6432 55.3639 122.27 60.4921 133.154L210.344 62.5443C205.216 51.6609 167.513 58.6481 126.134 78.1456Z" fill="white"/>
<path d="M144.701 117.55C186.08 98.0522 215.471 73.4252 210.344 62.5444L60.4921 133.154C65.619 144.034 103.322 137.047 144.701 117.55Z" fill="white"/>
<path opacity="0.05" d="M144.701 117.55C186.08 98.0522 215.471 73.4252 210.344 62.5444L60.4921 133.154C65.619 144.034 103.322 137.047 144.701 117.55Z" fill="black"/>
<path opacity="0.05" d="M164.25 77.9786L101.739 107.433C99.2515 108.606 98.1908 111.585 99.3703 114.088L99.9433 115.304C101.123 117.807 104.096 118.886 106.584 117.714L169.094 88.2593C171.582 87.0871 172.643 84.1076 171.463 81.6044L170.89 80.3884C169.711 77.8853 166.738 76.8064 164.25 77.9786Z" fill="black"/>
<path opacity="0.5" d="M42.1945 102.252C41.9336 102.259 41.6789 102.17 41.4785 102.001C41.2782 101.832 41.1462 101.596 41.1076 101.336C41.102 101.296 41.092 101.257 41.0777 101.218C41.0352 101.111 40.9595 101.02 40.8617 100.959C40.7639 100.899 40.6493 100.871 40.535 100.881C40.4206 100.891 40.3127 100.937 40.2271 101.014C40.1416 101.09 40.0832 101.192 40.0605 101.305C40.0534 101.345 40.0508 101.385 40.0528 101.425C40.0616 101.687 39.9739 101.943 39.8066 102.143C39.6392 102.343 39.4039 102.475 39.1455 102.512C39.1056 102.517 39.0663 102.527 39.0284 102.541C38.9217 102.583 38.8315 102.659 38.7714 102.757C38.7112 102.855 38.6843 102.969 38.6946 103.084C38.7048 103.199 38.7518 103.308 38.8284 103.394C38.905 103.48 39.0072 103.539 39.1197 103.563C39.1592 103.571 39.1996 103.575 39.24 103.574C39.5008 103.567 39.7556 103.656 39.9559 103.825C40.1563 103.994 40.2883 104.23 40.3269 104.49C40.3323 104.529 40.3419 104.567 40.3556 104.605C40.3974 104.713 40.4729 104.804 40.5707 104.865C40.6685 104.927 40.7833 104.955 40.898 104.945C41.0127 104.936 41.121 104.889 41.2068 104.813C41.2926 104.736 41.3513 104.634 41.374 104.52C41.3813 104.48 41.3835 104.439 41.3804 104.398C41.3751 104.138 41.4651 103.884 41.6334 103.687C41.8017 103.489 42.0366 103.36 42.2938 103.325C42.3338 103.319 42.3731 103.309 42.411 103.295C42.5177 103.253 42.6078 103.178 42.668 103.08C42.7282 102.982 42.7551 102.867 42.7448 102.752C42.7346 102.637 42.6876 102.529 42.611 102.442C42.5344 102.356 42.4322 102.297 42.3197 102.274C42.2791 102.261 42.237 102.254 42.1945 102.252Z" fill="#4D8AF0"/>
<path opacity="0.5" d="M213.296 120.052C213.037 120.055 212.784 119.964 212.587 119.794C212.389 119.624 212.259 119.388 212.222 119.13C212.217 119.09 212.207 119.05 212.192 119.012C212.15 118.905 212.074 118.814 211.976 118.753C211.879 118.692 211.764 118.665 211.65 118.674C211.535 118.684 211.427 118.731 211.342 118.807C211.256 118.884 211.198 118.986 211.175 119.099C211.168 119.138 211.166 119.178 211.168 119.218C211.176 119.48 211.089 119.736 210.921 119.937C210.754 120.137 210.519 120.268 210.26 120.305C210.22 120.311 210.181 120.321 210.143 120.335C210.036 120.377 209.946 120.452 209.886 120.55C209.826 120.648 209.799 120.763 209.809 120.878C209.82 120.993 209.867 121.101 209.943 121.188C210.02 121.274 210.122 121.333 210.234 121.356C210.274 121.365 210.314 121.369 210.355 121.367C210.614 121.364 210.867 121.456 211.064 121.625C211.262 121.795 211.392 122.031 211.429 122.289C211.434 122.329 211.444 122.367 211.457 122.404C211.499 122.512 211.575 122.604 211.672 122.665C211.77 122.727 211.885 122.755 212 122.745C212.114 122.736 212.223 122.689 212.308 122.613C212.394 122.536 212.453 122.433 212.476 122.32C212.483 122.28 212.485 122.239 212.482 122.198C212.477 121.937 212.567 121.684 212.735 121.486C212.903 121.289 213.138 121.16 213.396 121.124C213.436 121.119 213.475 121.109 213.513 121.095C213.619 121.053 213.71 120.977 213.77 120.879C213.83 120.782 213.857 120.667 213.846 120.552C213.836 120.437 213.789 120.328 213.713 120.242C213.636 120.156 213.534 120.097 213.421 120.073C213.381 120.061 213.339 120.053 213.296 120.052Z" fill="#4D8AF0"/>
<path opacity="0.5" d="M83.8908 226.7C83.63 226.707 83.3752 226.618 83.1749 226.449C82.9745 226.28 82.8425 226.043 82.8039 225.784C82.7983 225.744 82.7883 225.704 82.774 225.666C82.7316 225.559 82.6558 225.468 82.558 225.407C82.4602 225.346 82.3456 225.319 82.2313 225.329C82.1169 225.338 82.009 225.385 81.9235 225.461C81.838 225.538 81.7795 225.64 81.7568 225.753C81.7497 225.793 81.7472 225.833 81.7491 225.873C81.7579 226.135 81.6703 226.39 81.5029 226.591C81.3356 226.791 81.1002 226.922 80.8419 226.959C80.8019 226.965 80.7626 226.975 80.7247 226.989C80.618 227.031 80.5279 227.107 80.4677 227.204C80.4076 227.302 80.3806 227.417 80.3909 227.532C80.4012 227.647 80.4481 227.756 80.5247 227.842C80.6013 227.928 80.7035 227.987 80.8161 228.011C80.8555 228.019 80.8959 228.023 80.9363 228.021C81.1971 228.014 81.4519 228.104 81.6522 228.273C81.8526 228.442 81.9846 228.678 82.0232 228.937C82.0286 228.977 82.0382 229.015 82.0519 229.052C82.0938 229.16 82.1692 229.252 82.267 229.313C82.3648 229.375 82.4796 229.403 82.5943 229.393C82.709 229.384 82.8174 229.337 82.9032 229.261C82.989 229.184 83.0476 229.081 83.0703 228.968C83.0776 228.928 83.0798 228.887 83.0767 228.846C83.0714 228.585 83.1614 228.332 83.3297 228.134C83.498 227.937 83.733 227.808 83.9902 227.772C84.0302 227.767 84.0694 227.757 84.1074 227.743C84.214 227.701 84.3042 227.625 84.3643 227.527C84.4245 227.43 84.4514 227.315 84.4412 227.2C84.4309 227.085 84.384 226.976 84.3073 226.89C84.2307 226.804 84.1285 226.745 84.016 226.721C83.9754 226.709 83.9333 226.701 83.8908 226.7Z" fill="#4D8AF0"/>
<path opacity="0.5" d="M28.4526 146.359C28.193 146.363 27.9407 146.271 27.743 146.101C27.5452 145.931 27.4157 145.695 27.3787 145.437C27.3732 145.397 27.3632 145.357 27.3488 145.319C27.3064 145.212 27.2307 145.121 27.1329 145.06C27.0351 144.999 26.9205 144.972 26.8061 144.982C26.6918 144.991 26.5838 145.038 26.4983 145.115C26.4128 145.191 26.3543 145.293 26.3316 145.406C26.3246 145.446 26.322 145.486 26.324 145.526C26.3327 145.788 26.2451 146.043 26.0778 146.244C25.9104 146.444 25.6751 146.576 25.4167 146.612C25.3767 146.618 25.3375 146.628 25.2995 146.642C25.1929 146.684 25.1027 146.76 25.0426 146.858C24.9824 146.955 24.9555 147.07 24.9657 147.185C24.976 147.3 25.023 147.409 25.0996 147.495C25.1762 147.581 25.2784 147.64 25.3909 147.664C25.4304 147.672 25.4708 147.676 25.5111 147.674C25.772 147.668 26.0267 147.757 26.2271 147.926C26.4274 148.095 26.5595 148.331 26.5981 148.59C26.6035 148.63 26.6131 148.668 26.6267 148.706C26.6686 148.813 26.7441 148.905 26.8419 148.966C26.9397 149.028 27.0545 149.056 27.1692 149.046C27.2839 149.037 27.3922 148.99 27.478 148.914C27.5638 148.837 27.6225 148.734 27.6452 148.621C27.6525 148.581 27.6546 148.54 27.6516 148.499C27.6463 148.239 27.7363 147.985 27.9046 147.787C28.0729 147.59 28.3078 147.461 28.565 147.426C28.605 147.42 28.6443 147.41 28.6822 147.396C28.7889 147.354 28.879 147.278 28.9392 147.181C28.9993 147.083 29.0263 146.968 29.016 146.853C29.0057 146.738 28.9588 146.629 28.8822 146.543C28.8056 146.457 28.7034 146.398 28.5908 146.374C28.5457 146.363 28.4991 146.357 28.4526 146.359Z" fill="#4D8AF0"/>
<path opacity="0.5" d="M166.405 27.3212C166.146 27.3247 165.893 27.2329 165.696 27.0631C165.498 26.8933 165.368 26.6572 165.331 26.3991C165.326 26.3588 165.316 26.3193 165.301 26.2813C165.259 26.174 165.183 26.0831 165.085 26.0223C164.988 25.9614 164.873 25.9338 164.759 25.9436C164.644 25.9534 164.536 26 164.451 26.0765C164.365 26.153 164.307 26.2553 164.284 26.3682C164.277 26.4075 164.275 26.4476 164.277 26.4876C164.282 26.7483 164.192 27.0016 164.024 27.1994C163.855 27.3972 163.62 27.526 163.363 27.5613C163.323 27.567 163.284 27.5769 163.246 27.5908C163.122 27.6201 163.013 27.6931 162.938 27.7967C162.864 27.9002 162.829 28.0272 162.84 28.1548C162.851 28.2824 162.907 28.402 162.998 28.4919C163.089 28.5818 163.209 28.6361 163.337 28.6448C163.376 28.6536 163.416 28.6573 163.457 28.6557C163.716 28.6522 163.969 28.744 164.166 28.9138C164.364 29.0836 164.494 29.3197 164.531 29.5778C164.536 29.6171 164.546 29.6557 164.559 29.693C164.599 29.8066 164.676 29.9035 164.778 29.968C164.879 30.0326 164.999 30.061 165.118 30.0488C165.237 30.0365 165.349 29.9843 165.434 29.9005C165.52 29.8167 165.575 29.7062 165.59 29.5869C165.597 29.5467 165.599 29.5057 165.596 29.4649C165.591 29.2041 165.681 28.9509 165.849 28.7531C166.018 28.5552 166.253 28.4265 166.51 28.3912C166.55 28.3855 166.589 28.3756 166.627 28.3617C166.734 28.3196 166.824 28.244 166.884 28.1462C166.944 28.0483 166.971 27.9333 166.961 27.8185C166.95 27.7037 166.904 27.595 166.827 27.5088C166.75 27.4226 166.648 27.3635 166.536 27.3401C166.493 27.3277 166.449 27.3213 166.405 27.3212Z" fill="#4D8AF0"/>
<g opacity="0.5">
<path opacity="0.5" d="M61.5387 157.478L60.7539 157.848L62.8622 162.323L63.647 161.953L61.5387 157.478Z" fill="#47E6B1"/>
<path opacity="0.5" d="M64.61 159.247L64.238 158.458L59.7908 160.553L60.1629 161.343L64.61 159.247Z" fill="#47E6B1"/>
</g>
<g opacity="0.5">
<path opacity="0.5" d="M239.965 47.6735L239.18 48.0433L241.289 52.5178L242.073 52.148L239.965 47.6735Z" fill="#47E6B1"/>
<path opacity="0.5" d="M243.037 49.4427L242.664 48.6531L238.217 50.7485L238.589 51.5381L243.037 49.4427Z" fill="#47E6B1"/>
</g>
<g opacity="0.5">
<path opacity="0.5" d="M248.407 133.433L247.622 133.803L249.731 138.278L250.515 137.908L248.407 133.433Z" fill="#47E6B1"/>
<path opacity="0.5" d="M251.479 135.202L251.107 134.413L246.659 136.508L247.031 137.298L251.479 135.202Z" fill="#47E6B1"/>
</g>
<path opacity="0.5" d="M200.028 37.544C200.895 37.1356 201.264 36.0974 200.853 35.2252C200.443 34.353 199.407 33.9771 198.54 34.3856C197.673 34.7941 197.303 35.8322 197.714 36.7044C198.125 37.5766 199.161 37.9525 200.028 37.544Z" fill="#F55F44"/>
<path opacity="0.5" d="M3.90735 107.762C4.7742 107.353 5.14376 106.315 4.7328 105.443C4.32183 104.571 3.28596 104.195 2.41912 104.603C1.55227 105.012 1.1827 106.05 1.59367 106.922C2.00463 107.794 3.0405 108.17 3.90735 107.762Z" fill="#F55F44"/>
<path opacity="0.5" d="M93.7812 176.38C94.648 175.971 95.0176 174.933 94.6066 174.061C94.1956 173.189 93.1598 172.813 92.2929 173.221C91.4261 173.63 91.0565 174.668 91.4675 175.54C91.8784 176.412 92.9143 176.788 93.7812 176.38Z" fill="#F55F44"/>
<path opacity="0.05" d="M81.2336 117.186C86.1458 114.871 89.7392 112.17 89.2597 111.152C88.7802 110.135 84.4095 111.186 79.4974 113.501C74.5852 115.815 70.9918 118.517 71.4713 119.534C71.9507 120.552 76.3215 119.5 81.2336 117.186Z" fill="black"/>
<path opacity="0.05" d="M87.8066 131.135C92.7188 128.821 96.3122 126.12 95.8327 125.102C95.3533 124.084 90.9825 125.136 86.0704 127.45C81.1582 129.765 77.5648 132.466 78.0443 133.484C78.5238 134.501 82.8945 133.45 87.8066 131.135Z" fill="black"/>
<path opacity="0.05" d="M182.471 69.4832C187.383 67.1687 190.976 64.4675 190.497 63.4499C190.017 62.4324 185.647 63.4838 180.734 65.7984C175.822 68.113 172.229 70.8142 172.708 71.8317C173.188 72.8492 177.559 71.7978 182.471 69.4832Z" fill="black"/>
<path opacity="0.05" d="M189.044 83.433C193.956 81.1184 197.549 78.4172 197.07 77.3997C196.59 76.3821 192.22 77.4336 187.307 79.7481C182.395 82.0627 178.802 84.7639 179.281 85.7815C179.761 86.799 184.132 85.7476 189.044 83.433Z" fill="black"/>
<path opacity="0.05" d="M129.309 84.8836C134.221 82.5691 137.814 79.8678 137.335 78.8503C136.855 77.8327 132.485 78.8842 127.572 81.1988C122.66 83.5133 119.067 86.2146 119.546 87.2321C120.026 88.2497 124.397 87.1982 129.309 84.8836Z" fill="black"/>
<path opacity="0.05" d="M126.795 62.5882C131.707 60.2737 135.301 57.5724 134.821 56.5549C134.342 55.5374 129.971 56.5888 125.059 58.9034C120.147 61.218 116.553 63.9192 117.033 64.9367C117.512 65.9543 121.883 64.9028 126.795 62.5882Z" fill="black"/>
<path opacity="0.05" d="M113.512 78.4964C118.424 76.1818 122.018 73.4806 121.538 72.463C121.059 71.4455 116.688 72.4969 111.776 74.8115C106.864 77.1261 103.27 79.8273 103.75 80.8448C104.229 81.8624 108.6 80.8109 113.512 78.4964Z" fill="black"/>
<path opacity="0.05" d="M147.824 66.5102C152.736 64.1957 156.329 61.4944 155.85 60.4769C155.37 59.4593 151 60.5108 146.087 62.8254C141.175 65.14 137.582 67.8412 138.061 68.8587C138.541 69.8763 142.912 68.8248 147.824 66.5102Z" fill="black"/>
<path opacity="0.05" d="M142.207 112.257C147.119 109.942 150.712 107.241 150.233 106.223C149.753 105.206 145.383 106.257 140.471 108.572C135.558 110.886 131.965 113.588 132.444 114.605C132.924 115.623 137.295 114.571 142.207 112.257Z" fill="black"/>
</g>
<path fill-rule="evenodd" clip-rule="evenodd" d="M212 191C212 199.487 208.629 207.626 202.627 213.627C196.626 219.629 188.487 223 180 223C171.513 223 163.374 219.629 157.373 213.627C151.371 207.626 148 199.487 148 191C148 182.513 151.371 174.374 157.373 168.373C163.374 162.371 171.513 159 180 159C188.487 159 196.626 162.371 202.627 168.373C208.629 174.374 212 182.513 212 191ZM196.12 178.88C195.834 178.595 195.494 178.371 195.12 178.221C194.745 178.071 194.345 177.997 193.941 178.006C193.538 178.014 193.141 178.103 192.773 178.269C192.405 178.434 192.074 178.672 191.8 178.968L177.908 196.668L169.536 188.292C168.967 187.762 168.215 187.474 167.438 187.487C166.661 187.501 165.919 187.816 165.37 188.366C164.82 188.915 164.505 189.657 164.491 190.434C164.478 191.211 164.766 191.963 165.296 192.532L175.88 203.12C176.165 203.405 176.505 203.629 176.878 203.779C177.252 203.93 177.652 204.004 178.055 203.996C178.458 203.989 178.855 203.9 179.223 203.736C179.591 203.572 179.922 203.335 180.196 203.04L196.164 183.08C196.708 182.514 197.009 181.757 197.002 180.972C196.994 180.187 196.679 179.436 196.124 178.88H196.12Z" fill="#0BB631"/>
<path d="M451.281 260.913C471.41 260.913 487.728 244.58 487.728 224.432C487.728 204.285 471.41 187.952 451.281 187.952C431.151 187.952 414.833 204.285 414.833 224.432C414.833 244.58 431.151 260.913 451.281 260.913Z" fill="#F2F2F2"/>
<path d="M339.334 153.556C341.059 153.556 342.458 152.156 342.458 150.429C342.458 148.702 341.059 147.302 339.334 147.302C337.608 147.302 336.21 148.702 336.21 150.429C336.21 152.156 337.608 153.556 339.334 153.556Z" fill="#FF6584"/>
<path d="M440.867 363.059C442.592 363.059 443.991 361.659 443.991 359.932C443.991 358.205 442.592 356.805 440.867 356.805C439.141 356.805 437.743 358.205 437.743 359.932C437.743 361.659 439.141 363.059 440.867 363.059Z" fill="#FF6584"/>
<path d="M451.281 153.556C453.006 153.556 454.405 152.156 454.405 150.429C454.405 148.702 453.006 147.302 451.281 147.302C449.555 147.302 448.156 148.702 448.156 150.429C448.156 152.156 449.555 153.556 451.281 153.556Z" fill="#F2F2F2"/>
<path d="M495.018 304.169C496.743 304.169 498.142 302.769 498.142 301.042C498.142 299.315 496.743 297.915 495.018 297.915C493.292 297.915 491.894 299.315 491.894 301.042C491.894 302.769 493.292 304.169 495.018 304.169Z" fill="#F2F2F2"/>
<path d="M370.575 237.982C372.3 237.982 373.699 236.582 373.699 234.856C373.699 233.129 372.3 231.729 370.575 231.729C368.849 231.729 367.451 233.129 367.451 234.856C367.451 236.582 368.849 237.982 370.575 237.982Z" fill="#F2F2F2"/>
<path d="M264.355 450.091C323.019 450.091 370.575 402.493 370.575 343.776C370.575 285.06 323.019 237.461 264.355 237.461C205.692 237.461 158.136 285.06 158.136 343.776C158.136 402.493 205.692 450.091 264.355 450.091Z" fill="#6C63FF"/>
<path opacity="0.2" d="M259.669 316.155C268.296 316.155 275.29 309.155 275.29 300.521C275.29 291.886 268.296 284.886 259.669 284.886C251.042 284.886 244.049 291.886 244.049 300.521C244.049 309.155 251.042 316.155 259.669 316.155Z" fill="black"/>
<path opacity="0.2" d="M259.669 432.372C274.623 432.372 286.745 420.239 286.745 405.272C286.745 390.305 274.623 378.172 259.669 378.172C244.716 378.172 232.594 390.305 232.594 405.272C232.594 420.239 244.716 432.372 259.669 432.372Z" fill="black"/>
<path opacity="0.2" d="M181.046 370.876C184.784 370.876 187.815 367.843 187.815 364.101C187.815 360.36 184.784 357.326 181.046 357.326C177.308 357.326 174.277 360.36 174.277 364.101C174.277 367.843 177.308 370.876 181.046 370.876Z" fill="black"/>
<path opacity="0.2" d="M448.11 209.217C450.097 209.217 451.708 207.604 451.708 205.615C451.708 203.626 450.097 202.014 448.11 202.014C446.123 202.014 444.512 203.626 444.512 205.615C444.512 207.604 446.123 209.217 448.11 209.217Z" fill="black"/>
<path opacity="0.2" d="M295.55 280.615C297.537 280.615 299.148 279.002 299.148 277.013C299.148 275.024 297.537 273.411 295.55 273.411C293.562 273.411 291.951 275.024 291.951 277.013C291.951 279.002 293.562 280.615 295.55 280.615Z" fill="black"/>
<path opacity="0.2" d="M254.983 353.157C257.571 353.157 259.669 351.057 259.669 348.467C259.669 345.876 257.571 343.776 254.983 343.776C252.395 343.776 250.297 345.876 250.297 348.467C250.297 351.057 252.395 353.157 254.983 353.157Z" fill="black"/>
<path opacity="0.2" d="M439.351 237.992C441.339 237.992 442.95 236.379 442.95 234.39C442.95 232.401 441.339 230.789 439.351 230.789C437.364 230.789 435.753 232.401 435.753 234.39C435.753 236.379 437.364 237.992 439.351 237.992Z" fill="black"/>
<path opacity="0.2" d="M342.504 326.588C344.492 326.588 346.103 324.975 346.103 322.986C346.103 320.997 344.492 319.385 342.504 319.385C340.517 319.385 338.906 320.997 338.906 322.986C338.906 324.975 340.517 326.588 342.504 326.588Z" fill="black"/>
<path opacity="0.2" d="M471.596 236.196C474.467 236.196 476.794 233.866 476.794 230.993C476.794 228.12 474.467 225.791 471.596 225.791C468.726 225.791 466.399 228.12 466.399 230.993C466.399 233.866 468.726 236.196 471.596 236.196Z" fill="black"/>
<path opacity="0.2" d="M312.788 364.92C315.659 364.92 317.986 362.591 317.986 359.718C317.986 356.845 315.659 354.516 312.788 354.516C309.918 354.516 307.591 356.845 307.591 359.718C307.591 362.591 309.918 364.92 312.788 364.92Z" fill="black"/>
<path opacity="0.2" d="M198.749 307.296C202.488 307.296 205.518 304.262 205.518 300.521C205.518 296.779 202.488 293.746 198.749 293.746C195.011 293.746 191.98 296.779 191.98 300.521C191.98 304.262 195.011 307.296 198.749 307.296Z" fill="black"/>
<path d="M287.369 405.058C276.199 405.043 265.038 404.398 253.94 403.125C220.561 399.331 189.776 390.365 167.257 377.88C144.461 365.242 132.797 350.444 134.412 336.213C135.53 326.352 145.052 317.527 163.521 309.233C163.773 309.12 164.059 309.112 164.317 309.211C164.575 309.309 164.783 309.506 164.896 309.758C165.009 310.01 165.017 310.296 164.919 310.555C164.822 310.813 164.625 311.022 164.374 311.135C146.634 319.102 137.51 327.381 136.481 336.448C134.968 349.787 146.256 363.854 168.266 376.057C190.552 388.412 221.061 397.289 254.175 401.053C287.289 404.817 319.01 403.014 343.497 395.975C367.68 389.023 381.832 377.848 383.346 364.508C384.37 355.484 379.403 345.915 368.984 336.836C368.775 336.655 368.647 336.398 368.628 336.122C368.609 335.846 368.701 335.574 368.882 335.366C369.063 335.157 369.32 335.029 369.596 335.01C369.871 334.991 370.143 335.082 370.351 335.264C381.311 344.814 386.52 355.008 385.415 364.744C383.8 378.976 369.118 390.779 344.072 397.978C327.764 402.666 308.3 405.058 287.369 405.058Z" fill="white"/>
<path opacity="0.1" d="M519.004 298.548L521.956 300.764L523.432 290.422L519.004 298.548Z" fill="black"/>
<defs>
<linearGradient id="paint0_linear" x1="143.49" y1="114.981" x2="115.347" y2="55.2522" gradientUnits="userSpaceOnUse">
<stop stop-color="#808080" stop-opacity="0.25"/>
<stop offset="0.54" stop-color="#808080" stop-opacity="0.12"/>
<stop offset="1" stop-color="#808080" stop-opacity="0.1"/>
</linearGradient>
<linearGradient id="paint1_linear" x1="30373.9" y1="96518.3" x2="29282.6" y2="86950.8" gradientUnits="userSpaceOnUse">
<stop stop-color="#808080" stop-opacity="0.25"/>
<stop offset="0.54" stop-color="#808080" stop-opacity="0.12"/>
<stop offset="1" stop-color="#808080" stop-opacity="0.1"/>
</linearGradient>
<linearGradient id="paint2_linear" x1="23382" y1="77514.9" x2="22290.6" y2="67947.3" gradientUnits="userSpaceOnUse">
<stop stop-color="#808080" stop-opacity="0.25"/>
<stop offset="0.54" stop-color="#808080" stop-opacity="0.12"/>
<stop offset="1" stop-color="#808080" stop-opacity="0.1"/>
</linearGradient>
<linearGradient id="paint3_linear" x1="71945.7" y1="-20911.7" x2="68973.1" y2="-27220.5" gradientUnits="userSpaceOnUse">
<stop stop-color="#808080" stop-opacity="0.25"/>
<stop offset="0.54" stop-color="#808080" stop-opacity="0.12"/>
<stop offset="1" stop-color="#808080" stop-opacity="0.1"/>
</linearGradient>
<clipPath id="clip0">
<rect width="242.911" height="211.483" fill="white" transform="translate(0 103.54) rotate(-25.2295)"/>
</clipPath>
</defs>
</svg>
